<svg xmlns="http://www.w3.org/2000/svg" version="1.1" fill="none" width="1104" height="672" viewBox="0 0 1104 672">
 <defs/>
 <g id="Background">
  <path transform="translate(174.8, -70.7807) rotate(16.2)" fill="#FE5F00" d="M2.78453 258.038 L32.5748 395.149 L35.3311 405.638 L38.8899 415.568 L43.1958 424.9 L48.1935 433.595 L53.8276 441.612 L60.043 448.912 L66.7842 455.455 L73.9959 461.201 L81.6229 466.111 L89.6097 470.145 L97.9012 473.263 L106.442 475.426 L115.177 476.593 L124.05 476.725 L133.007 475.783 L141.991 473.726 L342.794 414.972 L350.3 412.272 L357.462 408.678 L364.202 404.237 L370.442 398.993 L474.515 300.751 L576.527 204.452 L579.996 201.163 L589.055 190.648 L596.747 178.629 L602.974 165.32 L607.637 150.937 L609.35 143.41 L610.636 135.695 L611.481 127.82 L611.873 119.811 L611.799 111.695 L611.248 103.499 L610.207 95.2501 L608.663 86.9752 L605.799 75.955 L602.149 65.5039 L597.769 55.6646 L592.712 46.4797 L587.035 37.9918 L580.793 30.2436 L574.041 23.2776 L566.833 17.1365 L559.225 11.863 L551.273 7.49957 L543.031 4.08894 L534.554 1.67372 L525.898 0.296528 L517.118 0 L508.269 0.82676 L499.406 2.81943 L182.672 95.0556 L67.0387 128.67 L58.284 131.786 L50.0103 135.871 L42.2498 140.861 L35.035 146.689 L28.3983 153.29 L22.3721 160.598 L16.9886 168.546 L12.2804 177.07 L8.27965 186.102 L5.01889 195.578 L2.53044 205.432 L0.846688 215.597 L0 226.007 L0.022755 236.597 L0.947329 247.302 L2.8061 258.054 L2.78453 258.038"/>
 </g>
</svg>
