<svg xmlns="http://www.w3.org/2000/svg" width="64" height="64" viewBox="0 0 64 64" fill="none">
<rect width="256" height="256" fill="#002596"/>
<path d="M50.9991 21.0846C50.9991 17.3228 47.7373 14.2577 43.7228 14.2577C40.8912 14.2577 38.4305 15.783 37.2303 18.0103L37.2075 18.0012L33.0891 27.1183V20.9889C33.0891 17.1371 29.9494 14 26.0935 14H20.0175C16.1624 14 13.0228 17.1371 13.0228 20.9899V30.524L13 43.9145C13 47.6763 16.2618 50.7414 20.2763 50.7414C23.1079 50.7414 25.5685 49.2161 26.7688 46.9888L26.7916 46.9979L30.91 37.8808V44.0101C30.91 47.8629 34.0496 51 37.9056 51H43.9816C47.8376 51 50.9772 47.8629 50.9772 44.0101V34.476L51 21.0855L50.9991 21.0846ZM30.7059 32.4608L27.5526 39.4416L24.7839 45.5709C24.752 45.6438 24.7201 45.7112 24.6891 45.7795C23.9281 47.3503 22.2375 48.4457 20.2808 48.4457C17.6124 48.4457 15.4424 46.4132 15.4424 43.91L15.4242 27.1192L15.4151 20.9899C15.4151 18.4502 17.4811 16.3858 20.0229 16.3858H26.099C28.6407 16.3858 30.7068 18.4502 30.7068 20.9899V32.4618L30.7059 32.4608ZM43.9807 48.6133H37.9047C35.3629 48.6133 33.2969 46.5489 33.2969 44.0092V32.5373L36.4502 25.5566L39.2189 19.4272C39.2508 19.3544 39.2827 19.287 39.3137 19.2187C40.0746 17.6479 41.7652 16.5524 43.7219 16.5524C46.3904 16.5524 48.5603 18.5849 48.5603 21.0882L48.5785 37.879L48.5876 44.0083C48.5922 46.548 46.5216 48.6124 43.9798 48.6124L43.9807 48.6133Z" fill="#FF5F00"/>
</svg>